<?xml version="1.0" encoding="iso-8859-1"?>
<!-- Generator: Adobe Illustrator 19.0.0, SVG Export Plug-In . SVG Version: 6.00 Build 0)  -->
<svg version="1.1" id="Layer_1" xmlns="http://www.w3.org/2000/svg" xmlns:xlink="http://www.w3.org/1999/xlink" x="0px" y="0px"
	 viewBox="0 0 512 512" style="enable-background:new 0 0 512 512;" xml:space="preserve">
<g>
	<g>
		<path d="M96.913,248.131c-2.07-2.07-4.942-3.261-7.869-3.261c-2.927,0-5.799,1.19-7.869,3.261c-2.07,2.07-3.261,4.942-3.261,7.869
			c0,2.927,1.191,5.799,3.261,7.868c2.07,2.071,4.942,3.262,7.869,3.262c2.927,0,5.799-1.191,7.869-3.262
			c2.07-2.069,3.261-4.941,3.261-7.868C100.174,253.073,98.983,250.201,96.913,248.131z"/>
	</g>
</g>
<g>
	<g>
		<path d="M185.956,58.913c-2.07-2.07-4.942-3.261-7.869-3.261s-5.799,1.19-7.869,3.261c-2.07,2.07-3.261,4.931-3.261,7.869
			c0,2.927,1.191,5.799,3.261,7.868c2.07,2.071,4.942,3.262,7.869,3.262s5.799-1.191,7.869-3.262
			c2.07-2.069,3.261-4.941,3.261-7.868C189.217,63.855,188.026,60.984,185.956,58.913z"/>
	</g>
</g>
<g>
	<g>
		<path d="M469.704,211.478h-2.226V22.261c0-6.146-4.983-11.13-11.13-11.13h-44.522c-6.147,0-11.13,4.984-11.13,11.13v33.391
			H211.478c-6.147,0-11.13,4.984-11.13,11.13c0,6.146,4.983,11.13,11.13,11.13h189.217v133.565h-44.522v-77.913
			c0-6.146-4.983-11.13-11.13-11.13H166.957c-6.147,0-11.13,4.984-11.13,11.13v77.913h-44.522V77.913h33.391
			c6.147,0,11.13-4.984,11.13-11.13c0-6.146-4.983-11.13-11.13-11.13h-33.391V22.261c0-6.146-4.983-11.13-11.13-11.13H55.652
			c-6.147,0-11.13,4.984-11.13,11.13v189.217h-2.226C18.974,211.478,0,230.452,0,253.774v124.661v44.522
			c0,6.146,4.983,11.13,11.13,11.13h11.13v55.652c0,6.146,4.983,11.13,11.13,11.13h44.522c6.147,0,11.13-4.984,11.13-11.13
			c0-19.641,5.759-38.659,16.652-55.001l0.434-0.651h299.739l0.434,0.651c10.894,16.342,16.653,35.36,16.653,55.001
			c0,6.146,4.983,11.13,11.13,11.13h44.522c6.147,0,11.13-4.984,11.13-11.13v-55.652h11.13c6.147,0,11.13-4.984,11.13-11.13v-44.522
			V253.774C512,230.452,493.026,211.478,469.704,211.478z M422.957,66.783V33.391h22.261v178.087h-22.261V66.783z M178.087,144.696
			h155.826v66.783H178.087V144.696z M66.783,33.391h22.261v33.391v144.696H66.783V33.391z M67.289,478.609H44.522v-44.522h35.759
			C73.114,447.96,68.712,463.037,67.289,478.609z M467.478,478.609h-22.767c-1.422-15.571-5.825-30.649-12.991-44.522h35.759
			V478.609z M489.739,411.826h-11.13h-66.783H100.174H33.391h-11.13v-22.261h467.478V411.826z M489.739,367.304H22.261V267.13
			h33.391c6.147,0,11.13-4.984,11.13-11.13c0-6.146-4.983-11.13-11.13-11.13H24.375c3.287-6.586,10.075-11.13,17.921-11.13h13.357
			h44.522h66.783h178.087h66.783h44.522h13.357c11.047,0,20.035,8.988,20.035,20.035V367.304z"/>
	</g>
</g>
<g>
</g>
<g>
</g>
<g>
</g>
<g>
</g>
<g>
</g>
<g>
</g>
<g>
</g>
<g>
</g>
<g>
</g>
<g>
</g>
<g>
</g>
<g>
</g>
<g>
</g>
<g>
</g>
<g>
</g>
</svg>
