<?xml version="1.0" encoding="iso-8859-1"?>
<!-- Generator: Adobe Illustrator 19.0.0, SVG Export Plug-In . SVG Version: 6.00 Build 0)  -->
<svg version="1.1" id="Layer_1" xmlns="http://www.w3.org/2000/svg" xmlns:xlink="http://www.w3.org/1999/xlink" x="0px" y="0px"
	 viewBox="0 0 512 512" style="enable-background:new 0 0 512 512;" xml:space="preserve">
<g>
	<g>
		<path d="M411.826,244.87h-33.391v-56.023c0-6.147-4.984-11.13-11.13-11.13c-6.146,0-11.13,4.983-11.13,11.13v56.023h-22.261
			V144.696c0-6.147-4.984-11.13-11.13-11.13H189.217c-6.147,0-11.13,4.983-11.13,11.13V244.87h-22.261V22.261h200.348v100.174
			c0,6.147,4.984,11.13,11.13,11.13c6.146,0,11.13-4.983,11.13-11.13V11.13c0-6.147-4.984-11.13-11.13-11.13H144.696
			c-6.147,0-11.13,4.983-11.13,11.13V244.87h-33.391c-6.147,0-11.13,4.983-11.13,11.13v44.522c0,6.147,4.983,11.13,11.13,11.13
			h11.13V500.87c0,6.147,4.983,11.13,11.13,11.13h44.522c6.147,0,11.13-4.983,11.13-11.13V311.652h155.826V500.87
			c0,6.147,4.984,11.13,11.13,11.13h44.522c6.146,0,11.13-4.983,11.13-11.13V311.652h11.13c6.146,0,11.13-4.983,11.13-11.13V256
			C422.957,249.853,417.972,244.87,411.826,244.87z M200.348,155.826h111.304v89.043H200.348V155.826z M155.826,489.739h-22.261
			V311.652h22.261V489.739z M378.435,489.739h-22.261V311.652h22.261V489.739z M400.696,289.391h-11.13h-44.522H166.957h-44.522
			h-11.13V267.13h33.391h44.522h133.565h44.522h33.391V289.391z"/>
	</g>
</g>
<g>
	<g>
		<path d="M322.783,44.522H189.217c-6.147,0-11.13,4.983-11.13,11.13v44.522c0,6.147,4.983,11.13,11.13,11.13h133.565
			c6.146,0,11.13-4.983,11.13-11.13V55.652C333.913,49.505,328.929,44.522,322.783,44.522z M311.652,89.044H200.348V66.783h111.304
			V89.044z"/>
	</g>
</g>
<g>
	<g>
		<path d="M367.304,144.509c-6.146,0-11.13,4.983-11.13,11.13v0.004c0,6.147,4.984,11.128,11.13,11.128
			c6.146,0,11.13-4.985,11.13-11.133S373.451,144.509,367.304,144.509z"/>
	</g>
</g>
<g>
</g>
<g>
</g>
<g>
</g>
<g>
</g>
<g>
</g>
<g>
</g>
<g>
</g>
<g>
</g>
<g>
</g>
<g>
</g>
<g>
</g>
<g>
</g>
<g>
</g>
<g>
</g>
<g>
</g>
</svg>
