<?xml version="1.0" encoding="iso-8859-1"?>
<!-- Generator: Adobe Illustrator 19.0.0, SVG Export Plug-In . SVG Version: 6.00 Build 0)  -->
<svg version="1.1" id="Layer_1" xmlns="http://www.w3.org/2000/svg" xmlns:xlink="http://www.w3.org/1999/xlink" x="0px" y="0px"
	 viewBox="0 0 512 512" style="enable-background:new 0 0 512 512;" xml:space="preserve">
<g>
	<g>
		<path d="M411.826,0H100.174c-6.146,0-11.13,4.983-11.13,11.13v445.217c0,6.147,4.984,11.13,11.13,11.13h11.13v33.391
			c0,6.147,4.984,11.13,11.13,11.13h44.522c6.146,0,11.13-4.983,11.13-11.13v-33.391h155.826v33.391
			c0,6.147,4.984,11.13,11.13,11.13h44.522c6.146,0,11.13-4.983,11.13-11.13v-33.391h11.13c6.146,0,11.13-4.983,11.13-11.13V11.13
			C422.957,4.983,417.972,0,411.826,0z M155.826,489.739h-22.261v-22.261h22.261V489.739z M378.435,489.739h-22.261v-22.261h22.261
			V489.739z M400.696,445.217h-11.13h-44.522H166.957h-44.522h-11.13V22.261h289.391V445.217z"/>
	</g>
</g>
<g>
	<g>
		<path d="M367.304,44.522H144.696c-6.146,0-11.13,4.983-11.13,11.13v356.174c0,6.147,4.984,11.13,11.13,11.13h222.609
			c6.146,0,11.13-4.983,11.13-11.13V55.652C378.435,49.505,373.451,44.522,367.304,44.522z M356.174,400.696H155.826v-66.8
			l200.348-0.336V400.696z M356.174,222.441l-100.192,0.168c-6.147,0.01-11.122,5.002-11.112,11.149
			c0.01,6.142,4.991,11.112,11.13,11.112c0.006,0,0.013,0,0.019,0l100.154-0.168v66.597l-200.348,0.336v-66.597l33.781-0.057
			c6.146-0.01,11.122-5.002,11.112-11.149c-0.01-6.142-4.991-11.112-11.13-11.112c-0.006,0-0.013,0-0.019,0l-33.743,0.057v-66.781
			l200.348-0.335V222.441z M356.174,133.398l-200.348,0.335V66.783h200.348V133.398z"/>
	</g>
</g>
<g>
	<g>
		<path d="M222.795,222.609c-6.146,0-11.13,4.983-11.13,11.13v0.111c0,6.147,4.984,11.13,11.13,11.13
			c6.146,0,11.13-4.983,11.13-11.13v-0.111C233.925,227.592,228.941,222.609,222.795,222.609z"/>
	</g>
</g>
<g>
	<g>
		<path d="M263.868,92.305c-2.069-2.07-4.941-3.261-7.868-3.261s-5.799,1.191-7.869,3.261s-3.261,4.942-3.261,7.869
			c0,2.927,1.19,5.799,3.261,7.869c2.071,2.07,4.942,3.261,7.869,3.261s5.799-1.191,7.868-3.261c2.071-2.07,3.262-4.942,3.262-7.869
			C267.13,97.247,265.939,94.375,263.868,92.305z"/>
	</g>
</g>
<g>
	<g>
		<path d="M263.868,181.348c-2.069-2.07-4.941-3.261-7.868-3.261s-5.799,1.191-7.869,3.261c-2.07,2.07-3.261,4.942-3.261,7.869
			s1.19,5.799,3.261,7.869c2.071,2.07,4.942,3.261,7.869,3.261s5.799-1.191,7.868-3.261c2.07-2.07,3.262-4.942,3.262-7.869
			S265.939,183.418,263.868,181.348z"/>
	</g>
</g>
<g>
	<g>
		<path d="M263.868,359.435c-2.069-2.07-4.941-3.261-7.868-3.261s-5.799,1.191-7.869,3.261s-3.261,4.942-3.261,7.869
			s1.19,5.799,3.261,7.869c2.071,2.07,4.942,3.261,7.869,3.261s5.799-1.191,7.868-3.261c2.07-2.07,3.262-4.942,3.262-7.869
			S265.939,361.505,263.868,359.435z"/>
	</g>
</g>
<g>
	<g>
		<path d="M263.868,270.392c-2.069-2.07-4.941-3.261-7.868-3.261s-5.799,1.191-7.869,3.261s-3.261,4.942-3.261,7.869
			s1.19,5.799,3.261,7.869c2.071,2.07,4.942,3.261,7.869,3.261s5.799-1.191,7.868-3.261c2.07-2.07,3.262-4.942,3.262-7.869
			S265.939,272.462,263.868,270.392z"/>
	</g>
</g>
<g>
</g>
<g>
</g>
<g>
</g>
<g>
</g>
<g>
</g>
<g>
</g>
<g>
</g>
<g>
</g>
<g>
</g>
<g>
</g>
<g>
</g>
<g>
</g>
<g>
</g>
<g>
</g>
<g>
</g>
</svg>
