<?xml version="1.0" encoding="iso-8859-1"?>
<!-- Generator: Adobe Illustrator 19.0.0, SVG Export Plug-In . SVG Version: 6.00 Build 0)  -->
<svg version="1.1" id="Layer_1" xmlns="http://www.w3.org/2000/svg" xmlns:xlink="http://www.w3.org/1999/xlink" x="0px" y="0px"
	 viewBox="0 0 512 512" style="enable-background:new 0 0 512 512;" xml:space="preserve">
<g>
	<g>
		<path d="M478.887,211.478h-11.409v-67.061c0-18.258-14.855-33.113-33.113-33.113H189.217c-6.146,0-11.13,4.983-11.13,11.13
			c0,6.147,4.984,11.13,11.13,11.13h245.148c5.984,0,10.852,4.868,10.852,10.852v67.061h-11.409
			c-18.258,0-33.113,14.855-33.113,33.113v0.278h-92.753H204.058h-92.753v-0.278c0-18.258-14.855-33.113-33.113-33.113H66.783
			v-67.061c0-5.984,4.868-10.852,10.852-10.852h44.8c6.146,0,11.13-4.983,11.13-11.13c0-6.147-4.984-11.13-11.13-11.13h-44.8
			c-18.258,0-33.113,14.855-33.113,33.113v67.061H33.113C14.855,211.478,0,226.333,0,244.591v144.974
			c0,6.147,4.984,11.13,11.13,11.13h89.044h311.652h89.043c6.146,0,11.13-4.983,11.13-11.13V244.591
			C512,226.333,497.145,211.478,478.887,211.478z M89.044,256v44.522v77.913H22.261V244.591c0-5.984,4.868-10.852,10.852-10.852
			h22.539h22.539c5.984,0,10.852,4.868,10.852,10.852V256z M215.188,267.13h81.624v22.261h-81.624V267.13z M111.304,267.13h81.623
			v22.261h-81.623V267.13z M400.696,378.435H111.304v-66.783h92.753h103.885h92.753V378.435z M400.696,289.391h-81.623V267.13
			h81.623V289.391z M489.739,378.435h-66.783v-77.913V256v-11.409c0-5.984,4.868-10.852,10.852-10.852h22.539h22.539
			c5.984,0,10.852,4.868,10.852,10.852V378.435z"/>
	</g>
</g>
<g>
	<g>
		<path d="M163.694,114.566c-2.069-2.07-4.941-3.261-7.868-3.261s-5.799,1.191-7.869,3.261c-2.07,2.07-3.261,4.942-3.261,7.869
			s1.19,5.799,3.261,7.869c2.071,2.07,4.942,3.261,7.869,3.261s5.799-1.191,7.868-3.261c2.07-2.07,3.262-4.942,3.262-7.869
			S165.766,116.636,163.694,114.566z"/>
	</g>
</g>
<g>
	<g>
		<path d="M256,166.957c-12.275,0-22.261,9.986-22.261,22.261s9.986,22.261,22.261,22.261c12.275,0,22.261-9.986,22.261-22.261
			S268.275,166.957,256,166.957z"/>
	</g>
</g>
<g>
	<g>
		<path d="M389.565,166.957c-12.275,0-22.261,9.986-22.261,22.261s9.986,22.261,22.261,22.261c12.275,0,22.261-9.986,22.261-22.261
			S401.84,166.957,389.565,166.957z"/>
	</g>
</g>
<g>
	<g>
		<path d="M122.435,166.957c-12.275,0-22.261,9.986-22.261,22.261s9.986,22.261,22.261,22.261c12.275,0,22.261-9.986,22.261-22.261
			S134.709,166.957,122.435,166.957z"/>
	</g>
</g>
<g>
</g>
<g>
</g>
<g>
</g>
<g>
</g>
<g>
</g>
<g>
</g>
<g>
</g>
<g>
</g>
<g>
</g>
<g>
</g>
<g>
</g>
<g>
</g>
<g>
</g>
<g>
</g>
<g>
</g>
</svg>
