<?xml version="1.0" encoding="iso-8859-1"?>
<!-- Generator: Adobe Illustrator 19.0.0, SVG Export Plug-In . SVG Version: 6.00 Build 0)  -->
<svg version="1.1" id="Layer_1" xmlns="http://www.w3.org/2000/svg" xmlns:xlink="http://www.w3.org/1999/xlink" x="0px" y="0px"
	 viewBox="0 0 512 512" style="enable-background:new 0 0 512 512;" xml:space="preserve">
<g>
	<g>
		<path d="M480.461,233.739h-11.325l13.882-99.665c1.97-14.145-2.277-28.436-11.654-39.209
			c-9.376-10.773-22.944-16.952-37.226-16.952H189.217c-6.147,0-11.13,4.983-11.13,11.13c0,6.147,4.983,11.13,11.13,11.13h244.92
			c7.839,0,15.288,3.391,20.434,9.305c5.147,5.914,7.479,13.758,6.398,21.524L446.66,233.739h-69.297l26.473-26.473
			c4.587-4.587,7.112-10.685,7.112-17.171s-2.526-12.584-7.112-17.171l-41.622-41.622c-9.468-9.468-24.873-9.468-34.341,0
			l-41.622,41.622c-4.587,4.587-7.112,10.685-7.112,17.171s2.526,12.584,7.112,17.171l26.474,26.473H199.276l26.473-26.473
			c4.587-4.587,7.112-10.685,7.112-17.171s-2.526-12.584-7.112-17.171l-41.622-41.622c-9.468-9.468-24.872-9.468-34.341,0
			l-41.622,41.622c-4.587,4.587-7.112,10.685-7.112,17.171s2.525,12.584,7.112,17.171l26.474,26.473H65.306L50.642,131.097
			c-1.112-7.779,1.204-15.645,6.353-21.582c5.149-5.937,12.607-9.341,20.466-9.341h44.974c6.147,0,11.13-4.983,11.13-11.13
			c0-6.147-4.983-11.13-11.13-11.13H77.461c-14.315,0-27.904,6.202-37.284,17.017c-9.379,10.814-13.597,25.144-11.572,39.315
			l14.214,99.494h-11.28C14.148,233.739,0,247.887,0,265.278v30.555c0,27.135,22.075,49.21,49.21,49.21h6.843l-24.409,58.928
			c-2.789,6.734-2.038,14.374,2.012,20.435c4.05,6.062,10.82,9.68,18.11,9.68h25.136c8.841,0,16.74-5.278,20.123-13.446
			l31.313-75.598h255.323l31.313,75.598c3.383,8.168,11.282,13.446,20.123,13.446h25.136c7.289,0,14.06-3.619,18.11-9.68
			c4.049-6.062,4.802-13.702,2.012-20.434l-24.409-58.929h6.843c27.135,0,49.21-22.075,49.21-49.21v-30.555
			C512,247.887,497.852,233.739,480.461,233.739z M301.992,191.525c-0.49-0.489-0.592-1.047-0.592-1.429s0.102-0.94,0.592-1.429
			l41.622-41.622c0.788-0.788,2.073-0.787,2.858,0l41.622,41.622c0.49,0.489,0.592,1.047,0.592,1.429s-0.102,0.941-0.592,1.429
			l-41.622,41.622c-0.489,0.49-1.047,0.592-1.429,0.592c-0.382,0-0.94-0.102-1.429-0.592L301.992,191.525z M123.905,191.525
			c-0.49-0.489-0.592-1.047-0.592-1.429s0.102-0.94,0.592-1.429l41.621-41.622c0.394-0.394,0.912-0.591,1.43-0.591
			s1.035,0.197,1.429,0.591l41.622,41.622c0.49,0.489,0.592,1.047,0.592,1.429s-0.102,0.941-0.592,1.429l-41.622,41.622
			c-0.489,0.49-1.047,0.592-1.429,0.592s-0.941-0.102-1.429-0.592L123.905,191.525z M76.581,411.826H52.487l27.661-66.783h24.095
			L76.581,411.826z M459.513,411.826h-24.094l-27.662-66.783h24.095L459.513,411.826z M489.739,295.834
			c0,14.86-12.089,26.949-26.949,26.949h-23.501h-48.19H120.901h-48.19H49.21c-14.86,0-26.949-12.089-26.949-26.949v-30.555
			c0-5.117,4.162-9.278,9.278-9.278h24.113h400.696h24.113c5.117,0,9.278,4.162,9.278,9.278V295.834z"/>
	</g>
</g>
<g>
	<g>
		<path d="M163.695,81.174c-2.07-2.07-4.942-3.261-7.869-3.261s-5.799,1.191-7.869,3.261c-2.07,2.07-3.261,4.942-3.261,7.869
			c0,2.927,1.191,5.799,3.261,7.869c2.07,2.07,4.942,3.261,7.869,3.261s5.799-1.191,7.869-3.261s3.261-4.942,3.261-7.869
			C166.957,86.116,165.766,83.245,163.695,81.174z"/>
	</g>
</g>
<g>
</g>
<g>
</g>
<g>
</g>
<g>
</g>
<g>
</g>
<g>
</g>
<g>
</g>
<g>
</g>
<g>
</g>
<g>
</g>
<g>
</g>
<g>
</g>
<g>
</g>
<g>
</g>
<g>
</g>
</svg>
