<?xml version="1.0" encoding="iso-8859-1"?>
<!-- Generator: Adobe Illustrator 19.0.0, SVG Export Plug-In . SVG Version: 6.00 Build 0)  -->
<svg version="1.1" id="Layer_1" xmlns="http://www.w3.org/2000/svg" xmlns:xlink="http://www.w3.org/1999/xlink" x="0px" y="0px"
	 viewBox="0 0 512 512" style="enable-background:new 0 0 512 512;" xml:space="preserve">
<g>
	<g>
		<path d="M445.163,499.762L401.864,66.783h32.223c6.147,0,11.13-4.984,11.13-11.13V11.13c0-6.146-4.983-11.13-11.13-11.13h-244.87
			c-6.147,0-11.13,4.984-11.13,11.13c0,6.146,4.983,11.13,11.13,11.13h233.739v22.261h-33.391h-44.522H166.956h-44.522H89.043
			V22.261h33.391c6.147,0,11.13-4.984,11.13-11.13c0-6.146-4.983-11.13-11.13-11.13H77.913c-6.147,0-11.13,4.984-11.13,11.13v44.522
			c0,6.146,4.983,11.13,11.13,11.13h32.223L66.838,499.762c-0.313,3.13,0.712,6.244,2.823,8.576S74.768,512,77.913,512h44.522
			c5.719,0,10.506-4.333,11.075-10.023l16.807-168.064h211.367l16.807,168.064c0.569,5.69,5.357,10.023,11.075,10.023h44.522
			c3.144,0,6.143-1.33,8.253-3.662S445.475,502.891,445.163,499.762z M177.029,66.783H334.97l20.035,200.348h-198.01L177.029,66.783
			z M399.638,489.739l-16.807-168.064c-0.569-5.69-5.357-10.023-11.075-10.023H140.243c-5.719,0-10.506,4.333-11.075,10.023
			l-16.807,168.064h-22.15l42.296-422.957h22.15L133.62,277.153c-0.313,3.13,0.712,6.244,2.823,8.576
			c2.11,2.332,5.108,3.662,8.252,3.662h222.609c3.144,0,6.143-1.33,8.253-3.662c2.11-2.332,3.135-5.447,2.823-8.576L357.342,66.783
			h22.15l42.296,422.957H399.638z"/>
	</g>
</g>
<g>
	<g>
		<path d="M163.695,3.261C161.625,1.191,158.753,0,155.826,0s-5.799,1.19-7.869,3.261c-2.07,2.07-3.261,4.942-3.261,7.869
			s1.191,5.799,3.261,7.868c2.07,2.071,4.942,3.262,7.869,3.262s5.799-1.191,7.869-3.262c2.07-2.069,3.261-4.941,3.261-7.868
			S165.765,5.331,163.695,3.261z"/>
	</g>
</g>
<g>
</g>
<g>
</g>
<g>
</g>
<g>
</g>
<g>
</g>
<g>
</g>
<g>
</g>
<g>
</g>
<g>
</g>
<g>
</g>
<g>
</g>
<g>
</g>
<g>
</g>
<g>
</g>
<g>
</g>
</svg>
