<?xml version="1.0" encoding="iso-8859-1"?>
<!-- Generator: Adobe Illustrator 19.0.0, SVG Export Plug-In . SVG Version: 6.00 Build 0)  -->
<svg version="1.1" id="Layer_1" xmlns="http://www.w3.org/2000/svg" xmlns:xlink="http://www.w3.org/1999/xlink" x="0px" y="0px"
	 viewBox="0 0 512 512" style="enable-background:new 0 0 512 512;" xml:space="preserve">
<g>
	<g>
		<path d="M500.87,100.174H122.435c-6.147,0-11.13,4.984-11.13,11.13c0,6.146,4.983,11.13,11.13,11.13h367.304v22.261h-33.391
			H55.652H22.261v-22.261h33.391c6.147,0,11.13-4.984,11.13-11.13c0-6.146-4.983-11.13-11.13-11.13H11.13
			c-6.147,0-11.13,4.984-11.13,11.13v44.522c0,6.146,4.983,11.13,11.13,11.13h30.266l-0.264,1.054
			c-12.522,50.09-18.872,101.668-18.872,153.377l0.557,79.386c0.043,6.116,5.013,11.053,11.13,11.053H78.47
			c2.966,0,5.808-1.183,7.898-3.288s3.253-4.955,3.232-7.92l-0.557-79.307c0-29.149,2.131-58.564,6.339-87.572h321.234
			c4.207,29.006,6.339,58.427,6.339,87.65l0.557,79.385c0.043,6.116,5.014,11.052,11.13,11.052h44.522
			c2.965,0,5.809-1.183,7.898-3.288c2.09-2.105,3.253-4.955,3.232-7.92l-0.557-79.308c0-51.633-6.349-103.21-18.872-153.298
			l-0.263-1.055h30.266c6.146,0,11.13-4.984,11.13-11.13v-44.522C512,105.158,507.016,100.174,500.87,100.174z M445.696,389.565
			l-0.479-68.254c0-33.476-2.71-67.279-8.054-100.472c-0.868-5.395-5.525-9.361-10.989-9.361H85.826
			c-5.464,0-10.12,3.966-10.989,9.361c-5.344,33.195-8.054,66.999-8.054,100.55l0.479,68.176H45l-0.479-68.255
			c0-49.813,6.126-99.574,18.207-147.899l1.614-6.455h383.315l1.614,6.455c12.08,48.324,18.206,98.085,18.206,147.977l0.479,68.177
			H445.696z"/>
	</g>
</g>
<g>
	<g>
		<path d="M96.913,103.435c-2.07-2.07-4.942-3.261-7.869-3.261c-2.927,0-5.799,1.19-7.869,3.261c-2.07,2.07-3.261,4.942-3.261,7.869
			s1.191,5.799,3.261,7.868c2.07,2.071,4.942,3.262,7.869,3.262c2.927,0,5.799-1.191,7.869-3.262
			c2.07-2.069,3.261-4.941,3.261-7.868S98.983,105.505,96.913,103.435z"/>
	</g>
</g>
<g>
	<g>
		<path d="M300.522,178.087h-89.043c-6.147,0-11.13,4.984-11.13,11.13s4.983,11.13,11.13,11.13h89.043
			c6.146,0,11.13-4.984,11.13-11.13S306.668,178.087,300.522,178.087z"/>
	</g>
</g>
<g>
</g>
<g>
</g>
<g>
</g>
<g>
</g>
<g>
</g>
<g>
</g>
<g>
</g>
<g>
</g>
<g>
</g>
<g>
</g>
<g>
</g>
<g>
</g>
<g>
</g>
<g>
</g>
<g>
</g>
</svg>
